<svg fill="none" xmlns="http://www.w3.org/2000/svg" viewBox="0 0 494 276">
  <path d="M422.5 244.503c0 12.15-9.85 22-22 22s-22-9.85-22-22v-7c0-12.15 9.85-22 22-22s22 9.85 22 22v7zM290.895 236.764H339.5c0-13.399-10.969-24.261-24.5-24.261s-24.5 10.862-24.5 24.261v5.478c0 13.399 10.969 24.261 24.5 24.261a24.546 24.546 0 0016.5-6.327" stroke="#2A1270" stroke-width="18"/>
  <path d="M215 275.003v-97m125-82H215v82m0 0h59M114 275.003v-96.5M114 81v97.503m101 96.5v-96.5M215 81v97.503m-101 0h101" stroke="#2A1270" stroke-width="30"/>
  <path d="M15 275.003v-97.06m0 0V15.003L398 15s80.483 0 80.483 81.47S398 177.94 398 177.94l-383 .003z" stroke="#2A1270" stroke-width="30"/>
</svg>
