<svg fill="none" xmlns="http://www.w3.org/2000/svg" viewBox="0 0 45 49">
  <mask id="mask0" maskUnits="userSpaceOnUse" x="6" y="3" width="35" height="44">
    <path d="M6 3v3.5c0 8.466 6.012 16.296 14 18.108v.784C12.012 27.204 6 35.034 6 43.5V47h35v-3.5c0-8.466-6.012-16.296-14-18.108v-.784c7.988-1.812 14-9.642 14-18.108V3H6z" fill="#FD2626"/>
  </mask>
  <g mask="url(#mask0)">
    <path fill="#000" d="M3.5 3h39v44h-39z"/>
  </g>
  <path d="M3 46.5h39M3.5 3h39" stroke="#000" stroke-width="5" stroke-linecap="round"/>
  <path d="M5.5 3v3.5c0 8.466 6.012 16.296 14 18.108v.784c-7.988 1.812-14 9.642-14 18.108V47m35-44v3.5c0 8.466-6.012 16.296-14 18.108v.784c7.988 1.812 14 9.642 14 18.108V47" stroke="#000" stroke-width="3"/>
  <path d="M5.5 3v3.5c0 8.466 6.012 16.296 14 18.108v.784c-7.988 1.812-14 9.642-14 18.108V47m35-44v3.5c0 8.466-6.012 16.296-14 18.108v.784c7.988 1.812 14 9.642 14 18.108V47" stroke="#000" stroke-width="3"/>
</svg>
