<svg width="1040" height="276" viewBox="0 0 1040 276" fill="none" xmlns="http://www.w3.org/2000/svg">
<path d="M1030.5 244.5C1030.5 256.65 1020.65 266.5 1008.5 266.5C996.35 266.5 986.5 256.65 986.5 244.5V237.5C986.5 225.35 996.35 215.5 1008.5 215.5C1020.65 215.5 1030.5 225.35 1030.5 237.5V244.5Z" stroke="#EFEFEF" stroke-width="18"/>
<path d="M898.895 236.761H947.5C947.5 223.362 936.531 212.5 923 212.5C909.469 212.5 898.5 223.362 898.5 236.761V242.239C898.5 255.638 909.469 266.5 923 266.5C929.356 266.5 935.146 264.104 939.5 260.173" stroke="#EFEFEF" stroke-width="18" stroke-linecap="round" stroke-linejoin="round"/>
<path d="M823 260V178M948 96H823V178M823 178H882" stroke="#EFEFEF" stroke-width="30" stroke-linecap="round" stroke-linejoin="round"/>
<circle cx="678.5" cy="266" r="9" fill="#EFEFEF"/>
<path d="M537.5 260.5L537.5 178.5M537.5 96.5L537.5 178.5M638.5 261V178.5M638.5 97V178.5M537.5 178.5H638.5" stroke="#EFEFEF" stroke-width="30" stroke-linecap="round" stroke-linejoin="round"/>
<path d="M413.5 244C413.5 256.15 403.65 266 391.5 266C379.35 266 369.5 256.15 369.5 244V237C369.5 224.85 379.35 215 391.5 215C403.65 215 413.5 224.85 413.5 237V244Z" stroke="#EFEFEF" stroke-width="18"/>
<path d="M296.5 267V235M296.5 213V235M296.5 235C296.5 235 305.5 220 330 220" stroke="#EFEFEF" stroke-width="18" stroke-linecap="round" stroke-linejoin="round"/>
<path d="M257.5 170L257.5 215.558M257.5 215.558V266H232.343C232.343 266 207.5 266 207.5 240.779C207.5 215.558 232.343 215.558 232.343 215.558H257.5Z" stroke="#EFEFEF" stroke-width="18" stroke-linecap="round" stroke-linejoin="round"/>
<path d="M119.895 236.261H168.5C168.5 222.862 157.531 212 144 212C130.469 212 119.5 222.862 119.5 236.261V241.739C119.5 255.138 130.469 266 144 266C150.356 266 156.146 263.604 160.5 259.673" stroke="#EFEFEF" stroke-width="18" stroke-linecap="round" stroke-linejoin="round"/>
<path d="M15 260.5L15 177.94M15 177.94V15H96.5C96.5 15 176.983 15 176.983 96.47C176.983 177.94 96.5 177.94 96.5 177.94H15Z" stroke="#EFEFEF" stroke-width="30" stroke-linecap="round" stroke-linejoin="round"/>
</svg>
